<svg width="16" height="16" viewBox="0 0 16 16" fill="none" xmlns="http://www.w3.org/2000/svg">
<path d="M2.146 2.85401C2.09951 2.80752 2.06264 2.75233 2.03748 2.69159C2.01232 2.63085 1.99937 2.56575 1.99937 2.50001C1.99937 2.43426 2.01232 2.36916 2.03748 2.30842C2.06264 2.24768 2.09951 2.19249 2.146 2.14601C2.19249 2.09952 2.24768 2.06264 2.30842 2.03748C2.36916 2.01232 2.43426 1.99937 2.5 1.99937C2.56574 1.99937 2.63084 2.01232 2.69158 2.03748C2.75232 2.06264 2.80751 2.09952 2.854 2.14601L8 7.29301L13.146 2.14601C13.1925 2.09952 13.2477 2.06264 13.3084 2.03748C13.3692 2.01232 13.4343 1.99937 13.5 1.99937C13.5657 1.99937 13.6308 2.01232 13.6916 2.03748C13.7523 2.06264 13.8075 2.09952 13.854 2.14601C13.9005 2.19249 13.9374 2.24768 13.9625 2.30842C13.9877 2.36916 14.0006 2.43426 14.0006 2.50001C14.0006 2.56575 13.9877 2.63085 13.9625 2.69159C13.9374 2.75233 13.9005 2.80752 13.854 2.85401L8.707 8.00001L13.854 13.146C13.9005 13.1925 13.9374 13.2477 13.9625 13.3084C13.9877 13.3692 14.0006 13.4343 14.0006 13.5C14.0006 13.5657 13.9877 13.6308 13.9625 13.6916C13.9374 13.7523 13.9005 13.8075 13.854 13.854C13.8075 13.9005 13.7523 13.9374 13.6916 13.9625C13.6308 13.9877 13.5657 14.0006 13.5 14.0006C13.4343 14.0006 13.3692 13.9877 13.3084 13.9625C13.2477 13.9374 13.1925 13.9005 13.146 13.854L8 8.70701L2.854 13.854C2.80751 13.9005 2.75232 13.9374 2.69158 13.9625C2.63084 13.9877 2.56574 14.0006 2.5 14.0006C2.43426 14.0006 2.36916 13.9877 2.30842 13.9625C2.24768 13.9374 2.19249 13.9005 2.146 13.854C2.09951 13.8075 2.06264 13.7523 2.03748 13.6916C2.01232 13.6308 1.99937 13.5657 1.99937 13.5C1.99937 13.4343 2.01232 13.3692 2.03748 13.3084C2.06264 13.2477 2.09951 13.1925 2.146 13.146L7.293 8.00001L2.146 2.85401Z" fill="white"/>
</svg>
